<?xml version="1.0" ?><!DOCTYPE svg  PUBLIC '-//W3C//DTD SVG 1.1//EN'  'http://www.w3.org/Graphics/SVG/1.1/DTD/svg11.dtd'><svg baseProfile="full" height="56px" version="1.1" width="60px" xmlns="http://www.w3.org/2000/svg" xmlns:ev="http://www.w3.org/2001/xml-events" xmlns:xlink="http://www.w3.org/1999/xlink"><path d="M57.028,23.561 C57.028,23.561 57.539,34.054 57.539,34.054 C58.9359999999999,34.31 60,35.53 60,37 C60,38.654 58.654,40 57,40 C55.95,40 55.028,39.456 54.492,38.638 C54.492,38.638 41.981,41.182 41.981,41.182 C41.885,42.75 40.5920000000001,44 39,44 C37.346,44 36,42.654 36,41 C36,40.048 36.454,39.208 37.1479999999999,38.658 C37.1479999999999,38.658 34.9870000000001,28.999 34.9870000000001,28.999 C33.4580000000001,28.992 32.2090000000001,27.833 32.0350000000001,26.348 C32.0350000000001,26.348 27.471,25.193 27.471,25.193 C26.655,26.848 24.9659999999999,28 23,28 C20.2429999999999,28 18,25.757 18,23 C18,22.744 18.038,22.499 18.075,22.253 C18.075,22.253 13.384,20.8 13.384,20.8 C12.836,21.524 11.9760000000001,22 11,22 C10.6790000000001,22 10.375,21.936 10.085,21.842 C10.085,21.842 5.56899999999996,27.475 5.56899999999996,27.475 C5.83600000000001,27.923 6,28.441 6,29 C6,30.654 4.654,32 3,32 C1.34500000000003,32 0,30.654 0,29 C0,27.346 1.34500000000003,26 3,26 C3.36400000000003,26 3.70900000000006,26.075 4.03199999999993,26.194 C4.03199999999993,26.194 8.49000000000001,20.634 8.49000000000001,20.634 C8.18200000000002,20.163 8,19.603 8,19 C8,17.346 9.34500000000003,16 11,16 C12.6179999999999,16 13.932,17.29 13.989,18.894 C13.989,18.894 18.7639999999999,20.373 18.7639999999999,20.373 C19.6479999999999,18.954 21.2090000000001,18 23,18 C25.7570000000001,18 28,20.243 28,23 C28,23.088 27.9780000000001,23.171 27.9739999999999,23.258 C27.9739999999999,23.258 32.473,24.396 32.473,24.396 C33.0060000000001,23.56 33.9359999999999,23 35,23 C36.021,23 36.922,23.515 37.4639999999999,24.297 C37.4639999999999,24.297 50.0360000000001,19.356 50.0360000000001,19.356 C50.027,19.236 50,19.122 50,19 C50,16.243 52.2429999999999,14 55,14 C57.7570000000001,14 60,16.243 60,19 C60,21.033 58.7750000000001,22.78 57.028,23.561 ZM3,28 C2.44800000000009,28 2,28.449 2,29 C2,29.551 2.44800000000009,30 3,30 C3.55099999999993,30 4,29.551 4,29 C4,28.449 3.55099999999993,28 3,28 ZM11,18 C10.4490000000001,18 10,18.449 10,19 C10,19.551 10.4490000000001,20 11,20 C11.5509999999999,20 12,19.551 12,19 C12,18.449 11.5509999999999,18 11,18 ZM23,20 C21.346,20 20,21.346 20,23 C20,24.654 21.346,26 23,26 C24.654,26 26,24.654 26,23 C26,21.346 24.654,20 23,20 ZM57,38 C57.5509999999999,38 58,37.551 58,37 C58,36.449 57.5509999999999,36 57,36 C56.4480000000001,36 56,36.449 56,37 C56,37.551 56.4480000000001,38 57,38 ZM39,42 C39.5509999999999,42 40,41.551 40,41 C40,40.449 39.5509999999999,40 39,40 C38.4480000000001,40 38,40.449 38,41 C38,41.551 38.4480000000001,42 39,42 ZM35,25 C34.4480000000001,25 34,25.449 34,26 C34,26.551 34.4480000000001,27 35,27 C35.5509999999999,27 36,26.551 36,26 C36,25.449 35.5509999999999,25 35,25 ZM50.5809999999999,21.29 C50.5809999999999,21.29 37.9749999999999,26.245 37.9749999999999,26.245 C37.9059999999999,27.079 37.492,27.81 36.883,28.312 C36.883,28.312 39.0519999999999,38.006 39.0519999999999,38.006 C40.0309999999999,38.024 40.893,38.511 41.4290000000001,39.253 C41.4290000000001,39.253 54.0429999999999,36.688 54.0429999999999,36.688 C54.1500000000001,35.699 54.72,34.852 55.5519999999999,34.389 C55.5519999999999,34.389 55.047,23.995 55.047,23.995 C55.0309999999999,23.995 55.0160000000001,24 55,24 C53.0719999999999,24 51.4159999999999,22.892 50.5809999999999,21.29 ZM55,16 C53.346,16 52,17.346 52,19 C52,20.654 53.346,22 55,22 C56.654,22 58,20.654 58,19 C58,17.346 56.654,16 55,16 ZM45,4 C43.8969999999999,4 43,3.10300000000001 43,2 C43,0.89699999999999 43.8969999999999,0 45,0 C46.1030000000001,0 47,0.89699999999999 47,2 C47,3.10300000000001 46.1030000000001,4 45,4 ZM33,18 C31.8969999999999,18 31,17.103 31,16 C31,14.897 31.8969999999999,14 33,14 C34.1030000000001,14 35,14.897 35,16 C35,17.103 34.1030000000001,18 33,18 ZM16.625,8.25 C15.729,8.25 15,7.52099999999999 15,6.625 C15,5.72900000000001 15.729,5 16.625,5 C17.521,5 18.25,5.72900000000001 18.25,6.625 C18.25,7.52099999999999 17.521,8.25 16.625,8.25 ZM16.625,6.25 C16.4179999999999,6.25 16.25,6.41800000000001 16.25,6.625 C16.25,6.83099999999999 16.4179999999999,7 16.625,7 C16.8309999999999,7 17,6.83099999999999 17,6.625 C17,6.41800000000001 16.8309999999999,6.25 16.625,6.25 ZM10,38 C11.1030000000001,38 12,38.897 12,40 C12,41.103 11.1030000000001,42 10,42 C8.89699999999993,42 8,41.103 8,40 C8,38.897 8.89699999999993,38 10,38 ZM31,52 C32.1030000000001,52 33,52.897 33,54 C33,55.103 32.1030000000001,56 31,56 C29.8969999999999,56 29,55.103 29,54 C29,52.897 29.8969999999999,52 31,52 ZM49.625,46 C50.521,46 51.25,46.729 51.25,47.625 C51.25,48.521 50.521,49.25 49.625,49.25 C48.729,49.25 48,48.521 48,47.625 C48,46.729 48.729,46 49.625,46 ZM49.625,48 C49.8309999999999,48 50,47.831 50,47.625 C50,47.418 49.8309999999999,47.25 49.625,47.25 C49.4179999999999,47.25 49.25,47.418 49.25,47.625 C49.25,47.831 49.4179999999999,48 49.625,48 Z " fill="rgb( 80, 80, 112 )"/></svg>